<?xml version="1.0" encoding="UTF-8"?>
<svg id="_레이어_2" data-name="레이어 2" xmlns="http://www.w3.org/2000/svg" xmlns:xlink="http://www.w3.org/1999/xlink" viewBox="0 0 1080 1350">
  <defs>
    <style>
      .cls-1 {
        font-size: 23.29px;
        letter-spacing: -.02em;
      }

      .cls-1, .cls-2, .cls-3 {
        fill: #1c1c1c;
        font-family: TillVictoryComes-Regular, TillVictoryComes;
      }

      .cls-4 {
        fill: none;
      }

      .cls-2 {
        font-size: 67.93px;
        letter-spacing: -.02em;
      }

      .cls-3 {
        font-size: 24.86px;
        letter-spacing: -.02em;
      }

      .cls-5 {
        clip-path: url(#clippath);
      }
    </style>
    <clipPath id="clippath">
      <rect class="cls-4" width="1080" height="1350"/>
    </clipPath>
  </defs>
  <g id="_레이어_1-2" data-name="레이어 1">
    <g class="cls-5">
      <text class="cls-3" transform="translate(392.54 1246.84)"><tspan x="0" y="0">당신의 문장이 응원이 될때</tspan></text>
      <text class="cls-1" transform="translate(433.04 1280.91)"><tspan x="0" y="0">till victory comes</tspan></text>
      <text class="cls-2" transform="translate(288.2 147.2)"><tspan x="0" y="0">LET’S DO THIS!</tspan></text>
      <g>
        <path d="M611.16,199.65l9.99.02.52-.24c-1.93-.03-9.61.04-10.17.06.96-.05-.26-.17.56-.24,12.24.04,15.07.14,12.39.42,9.7,0,19.79,0,29.43,0,19.18-.03,42.59-.03,61.87-.09,8.78-.03,14.54-.25,18.68-.27,2.8,0,14.08.22,21.95.19,4.18-.02.33-.2,5.83-.15-4.55.25,15.04.14,19.9.07,5.88-.09.84-.35,11.79-.02l2.23-.24c16.67.47,16.55.11,17.81.12,5.48.01,15.78.27,15.5-.06h3.24c3.65.47,13.91.02,15.12.03,8.12.01,29.79.2,42.46.16,2.63,0,2.35-.13,4.22-.14,6.21-.04,13.79.35,36.31.04,3.81-.05,5.08-.17,8.37-.22,4.37-.07,12.36-.07,15.66-.13,1.54-.03,12.61-.77,13.32-.85,1.07-.12,6.12-.88,5.76-.93-1.28-.16-30.36-.4-1.23-.73-11.75-.24,2.64-.22,3.48-.52,2.29-.81.88-2.01-45.58-1.52.2-.06,4.96-.12,1.96-.16-14.95-.19-9.77.02-16.64.1-16.66.2-33.77.03-47.65.28l-2.95-.17c-3.66.3-4.72.03-15.4.01-16.53-.02-29.14.27-42.04.2-2.7-.01,1.71-.22-11.36-.08l5.88.33c-5.17.02-2.12-.11-5.23-.17-4.08-.08-10.38-.04-12.14-.26-10.56.39-17.88.18-30.48.18-14.02,0-27.59.06-41.35.09-5.27,0-10.94-.08-13.33-.07-.68,0-7.08.25-8.52.26-7.21.05-34.47-.14-35.79-.12l-.78.32c-8.48-.43-32.46-.4-44.94-.08-6.6-.47-25.04.11-34.55-.22l-.98.4-9.77-.1,7.18-.23c-15.33-.03-18.5-.12-17.39.29-9.04-.07-8.38-.17-11.81.06l2.39-.32-8.87.23-11.09-.26,6.44.09c-.47.32-4.32.69-17.43.33l13.55-.1c-2.4-.14-9.09-.09-5.94-.33-15.05.27-7.97.05-10.94,0-4.39-.06-10.69-.05-15.46-.13,1.23.29-8.06.6-12.74.22l-20.58-.27-.78.32c-9.24-.18-5.7.05-6.84.07-9.59.17-2.47-.31-11.04-.26-1.44,0-9.15.39-15.56.22-1.43-.04,3.82-.26-2.76-.25-.05.27-18.23.23-22.54.36-3.09.09-1.61.32-7.67.39-5.73.06-6.21-.17-6-.25.44-.16,10.46-.38.98-.49-9.08-.1-1.93.46-12.66.46-.87-.3,7.7-.64-8.76-.58l-.74.32c-7.15.05-17.6-.27-22.93-.2-.71.01,5.82.21-7.33.27l6.41.13c-3.27-.02-13.22.02-12.86-.06,1.15-.27,13.59-.21-1.16-.37-9.24.04-9.67.76-19.83.61-1.06-.02,8.51-.19-1.21-.16l-8.97.22c-9.48-.05,3.37-.29,2.83-.4-.34-.07-4.01-.2-6.37-.25-8.1-.17,1.27.26-6.97.15-1.71-.02-2.04-.33-7.96-.18-1.75.04,3.11.3-5.52.23-1.57-.01-3.27-.23-9.54-.26-1.51,0-7.78.37-17.3.29-1.38-.01-9.14-.54-13.71.14l-2.78-.25-5.5.23c4-.43-21.73-.69-19.67-.24.12.03,12.16.13,5.73.45-7.85-.05-6.03-.31-10.11-.4-1.7-.04-6.78,0-8.23-.05-2.24-.06,1.65-.24-1.8-.23-2,0-12.94.11-8.86.23,1.07.03,5.17-.11,6.78-.03,1.33.06,6.31.51,5.41.53-.4,0-9.32.03-9.88-.08-1.79-.35-4.11-.04-6.37-.11-5.78-.18,10.81-.14,7.15-.23-10.82-.25-16.46-.19-29.38-.21-4.08.08,3.53.86-17.13.09,20.57-.16-9.7-.34-10.14.02h-3.19c2.87-.25-18.46-.31-23.95-.28-16.11.1-10.3,1.29-10.29,1.59.02.34-10.66.55,9.39.78,1.08.18-6.12.05-9.17.26-5.04.34-1.01,1.84,6.22,2.17,7.86.36,41.89.26,47.75-.06,5.51-.03,2.04.12,3.51.15,10.3.2,13.72-.23,13.85-.44,6.33-.02,1.08.16,3.46.23.7.02,6.7.05,10.41.12.98.02,5.15.3,11.63.17.89-.02-4.7-.38,6.12-.47,3.78-.02,11.38.3,17.58.38,3.78.05,8.92.06,13.12.08-4.55-.21.02-.35,1.31-.56l10.38.58c14.16-.04,17.23-.21,16.24-.54,12.63-.02.71.11,5.61.29,11.65.44,22.96,0,32.11.04,3.64.01,5.23.19,11.3.15l.94-.4c4-.02,8.37.06,9.67.14,2.53.16-12.53.08-7.23.27.53.02,16.58-.03,13.88-.22,6-.02,1.84.12,2.95.17,2.42.09,3.43-.12,5.17-.14,7.14-.05,17.29.21,24.75.19,1.79-.13-5.78-.06-6.47-.13-1.99-.22,6.92-.17,7.62-.35,6.77.03-2.11.4,2.28.48,6.45.12,18.61-.11,22-.12.93,0,2.41.29,14.54.19-5.69-.27,1.51-.39,5.18-.07l1.85-.1,13.5-.04-9.43-.26c4.05,0,11.72.04,14.51.1,4.12.09-1.75.27,4.69.26l7.84-.47c21.17.15,7.47.55,8.66.58,8.06.17,13.13-.12,10.74-.3l9.79.1,7.03-.15c-7.65.29,3.56.19,8.5-.07l.76.4,9.96.02.96-.4c7.65.06-2.84.34,11.1.26,2.38-.01-.63-.24,11.79-.06,1,.15-5.73.04-6.82.07-3.85.1,28.57.24,29.59.21.97-.03-.2-.18.58-.24,13.31-.06,5.71.22,16.26.19l1.14-.48,2.22.49c10.9.1,4.67-.23,8.89-.23,8,.01,5.46.23,10.09.26,3.34.02,31.52.06,26.37-.12-1.12-.04-26.11-.56-11.89-.66,1.64-.01,2.87.47,18.53.67.64-.04,5.15-.14,5.34-.15-.61.02.01.11-.35.16ZM362.62,198.67c2.91.15,4.11.59-4.15.39-2.51-.06-3.91-.41,4.15-.39ZM202.19,197.19l-.53.24h-6.63c-.77-.12,2.28-.22,7.15-.24ZM166.73,197.37c-7.06-.14-6.57-.34,2.52-.4l-2.52.4ZM126.39,196.74c9.63.08,12.8.22,12.34.46l-4.93-.09-7.41-.37ZM403.26,196.97l-6.99.15-.16.08c11.36-.01,2.53.12,2.54.33-5.42,0-6.12-.47-5.38-.48.37,0,7.53-.03,9.99-.07ZM376.09,197.16c.47.15-.4.23-5.72.31l-.91-.32h6.63ZM476.37,197.17l-3.91.23c-6.52-.05-7.1-.18-5.87-.33l9.77.1ZM279.94,196.84h3.25s2.83.25,2.83.25l-9.99-.02,3.91-.23ZM139.83,196.68h-3.26c.2-.18-5.15-.36,4.17-.4l-.91.4ZM169.42,196.17c11.45.21,6.55.37-5.88.39l5.88-.39ZM500.56,196.81l2.82.25-9.97-.02c-1.93-.1,5.89-.27,7.15-.23ZM278.66,196.67c-7-.07-2.14-.19-.95-.32,3-.08,11.19.43.95.32ZM461.72,196.26l-1.11.48c-2.53-.06-9.41-.09-9.77-.1-.66-.02,3.86-.48,10.88-.38ZM264.41,196.29c.27.07-6.45.03-6.69.03-6.79-.18,1.26-.46,6.69-.03ZM568.98,196.12l-.71.32h-6.63c-.52-.16.62-.29,7.34-.32ZM238.58,195.88c-7.88-.07-7.7-.26-9.05-.42,7.64-.12,9.3.37,9.05.42ZM172.16,195.69l-9.41-.26c6.13-.02,10.86.11,9.41.26ZM435.04,195.49l4.09.41c-2.92-.01-7.78,0-9.55-.02-6.82-.13,1.36-.27,5.47-.38ZM498.53,195.52c8.36,0-11.58.39-15.88.37-1.58-.05,6.43-.33,8.23-.36.9-.02,5.61.05,7.64,0ZM359.97,195.44h6.63s-.54.25-.54.25h-6.63s.54-.25.54-.25ZM277.1,195.14c27.32.2,5.85.37-.38.16-.49-.02.45-.11.38-.16ZM631.5,195.1l-.54.24c-2.1,0-6.28,0-6.64-.01-2.06-.06.24-.35,7.18-.23Z"/>
        <g>
          <path d="M413.73,199.94c11.98.07,33.72-.24,42.37.04,2.36-.26,5.88-.07,15.13-.07,8.46,0,66.83,0,68.77-.08,1.63-.07-.06-.22.43-.31,6.79.01,5.25.3,6.11.32.83.02,16.02-.13,21.36,0,7.28-.3-13.92-.53-9.02-.73.24,0,8.5,0,8.79.01,2.85.09,3.44.57,3.32.72,6.58.03,13.02-.05,19.39-.05,15.01,0,44.48.04,57.89-.03,5.43-.03,12.58-.2,16.22-.2,3.33,0,5.16.18,10.66.14-5.32-.49,4.24-.28,11.01,0l288.68-.5c4.34-.43,25.04-2.07,9.87-2.35-4.64-.09-12.57.03-8.8-.31.45-.04,10.69-.15,10.86-.49.09-.18-4.56-.38-4.73-.57-.16-.19,6.05-1.25,3.4-1.32-22.74.13-63.47-.01-83.84.22-2.63.03-3.68.6-9.64,0-9.71.01-19,.09-28.71.11-6.5,0-25.18-.04-29.09-.02-4.41.03-6.75.19-9.56.2-1.35,0-4.87-.11-8.59-.12-24.32-.05-53.54.2-78.74.04l-.13.48c-6.71-.1-10.75-.2-18.31-.08l.02-.32c-12.76.06-32.05-.07-39.86.23h15.3c-10.41.39-23.64-.13-26.35-.15-17.03-.16-7.51.25-10.46.39-.22.01-8.87,0-9.13,0-5.02-.19,11.13-.13,6.12-.32-.26,0-8.9-.01-9.13,0-1.28.06.78.3-.12.4-12.55-.16-24.99-.5-40.7-.41-5.52.03-.58.35-6.75.4-5.11-.05-3.95-.31-4.57-.32-1.96-.05-11.34.22-9.18-.08-5.23-.04-1.59.15-4.33.15-16.28-.01-35.78-.19-53.84-.09l2.95.4-12.24-.08,3.12-.24c-15.74-.03-31.92-.02-48.99-.01l9.14.08-3.12.4c-7.96.06-7.19-.22-11.27-.25-6.55-.04-15.68.1-16.22.08-5.3-.16,5.32-.16,5.62-.17,2.3-.08-2.67-.23-4.05-.23-5.03,0-7.53.38-9.25.4-13.37.13-1.3-.26-9.51-.32-6.84-.05-13.14.04-19.55.07l7.55.4c-19.17-.02-2.68-.52-19.03-.55-6.78-.01-9.55.11-13.03.11-5.09,0-22.46-.11-24.52-.06-1.97.05,4.74.4-6.15.32,1.86-.47-2.37-.23-6.09-.29-8.77-.14-8.83-.35-15.4.13-7.73.07-4.95-.14-8.13-.16-5.99-.04-15.47,0-22.39-.09l-.12.4-3.01-.32c-17.64.12-11.59.5-12.4.88l-3.62-.83c-8.21-.36-14.68,0-16.11,0-6.9.07-19.04-.18-24.21-.15-10.08.07,3.82.66-20.27.47l3.09-.24c16.07.21,9.9-.16-2.22-.23-22.99-.13-14.45.49-33.1.7l-1.51-.24c-4.48-.04-2.38.31-9.21.16-1.22-.03,5.07-.11.91-.16-1.26-.01-3.76.01-6.01-.03-1.57-.03-2.89-.38-8.58.02l-9.25-.16c-4.91-.11,12.06-.08,4.65-.24-.69-.02-17.14,0-17.89.01-1.72.03-3.75.33-9.7.22-1.16-.02,3.23-.12,2.69-.15-.41-.02-12.52-.23-13.32-.23-2.86,0-24.82.26-31.84.22,3.64.38-9.14.21-9.6.23-.95.04,2.14.24,1.98.33-1.12.62-1.05,1.06,3.82,1.68,5.53-.09,6.83-.11,6.12.08h3s3.1-.24,3.1-.24c-4.8.34,8.03.38,2.95.56h9.27c-1.71.27-7.74.23-13.23.32-4.14.07,1.1.23-11.34.08-9.14.56,3.31,1.07,7.53,1.61.9.11-2.12.23-1.78.24,2.4.06,40.22.1,47.23.09,4.38,0,8.4-.11,12.59-.12,9.02,0,51.61.1,53.55.05.91-.02-.57-.31.11-.4l6.04.16,1.66-.56c6.5.28,1.9.43-.28.64-2.17.21,26.3.2,33.95.21,4.38,0,16.76.02,21.31.02,10.41,0,19.21-.09,29.11-.04l-4.44-.89c-.8.22,10.67.34,10.91.38.6.1-3.74.26-3.51.39.5.29,10.21.11,16.87.12,24.85.03,46.13.02,70.42.03,4.8,0,9.35.09,12.21.09,2.34,0,1.45-.16,1.78-.16,1.4-.03,4.79.12,8.09.14ZM410.24,199.32c6.92,0,4.45.54-7.72.4,1.67-.08,4.76-.4,7.72-.4ZM374.97,199.56h-12.21c.57-.34,12.84-.51,9.33-.88l6.04.16c-.18-.08-1.48-.32,4.62-.24,9.18.12,2.05.88,1.35,1.12l-2.93-.64c-11.79-.09-3.57.4-6.2.48ZM338.3,199.22l6.02.24,6.18-.32c8.4.27-6.63.6-11.78.38-1.72-.07-.09-.21-.42-.31ZM182.1,199.27c7.02-.12,5.69.65-6.18.16,6.52.04,5.76-.15,6.18-.16ZM156.04,199.02c4.76,0-.8.56-7.71.56-2.32-.2-2-.21,1.24-.37.62-.03,5.36-.11,6.47-.19ZM453.73,199.41l7,.16c-12.02.06-17.98-.26-6.07-.4l-.93.24ZM440.82,199.57l-1.43-.32c7.42.08,8.15.2,1.43.32ZM463.9,199.18l9.15.08c-2.2.11-3.02.33-9.22.24-.53,0,2.59-.24.07-.32ZM263.21,199.28c-4.61.4-9.78.03-6.72-.06,2.37-.07,9.84-.11,12.55-.17,2.02-.05-2.11-.26,8.04-.24,2.17-.07-8.61-.15-9.23-.2-4.04-.33,9.9-.2,11.82.02,1.46.17-5.92,1.01-14.92.82-.89-.02,1.62-.17-1.53-.16ZM172.85,199.02l-.07.4h-2.99s.07-.4.07-.4h2.99ZM320.01,198.58h9.17c-2.47.48,2.48.16,9.13.41-12.47-.09-9.96.34-21.49.32l3.19-.72ZM252.49,199.28c-5.72.02-10.61,0-12.23-.16,5.72-.02,10.61,0,12.23.16ZM699.78,198.83l6.09.24-.05.24c-2.79-.06-11.32-.07-11.89-.09-2.14-.06-.26-.38,5.84-.39ZM678.25,199.19c0,.11-11.04.15-15.26.12-2.98-.04,15.27-.35,15.26-.12ZM520.61,198.79l-1.57.28c11.48.09,7.76.25-3.09.2l4.66-.48ZM442.58,198.45l.03-.24,6.06.08.11-.32c4.81-.02,2.8.14,5.96.2,1.68.03,6.03-.04,6.21-.04,1.14.04-6.18.72-3.22.88-8.12-.03-2.9-.38-3.96-.46-.62-.05-8.62-.24-11.2-.1ZM583.39,198.72l-.03.24h-6.09c-.92-.11,1.68-.21,6.12-.24ZM512.94,198.79l-.03.16c-4.23.02-8.14-.05-9.15-.16h9.17ZM148.47,198.61c6.46-.41-.81-.27-2.49-.33-2.2-.08,1.64-.2,4.1-.23,1.21-.01,4.84.33,9.04.41,2.98.06,7.46-.02,7.69,0,3.78.15-10.35.19-6.19.4l-3-.32-9.16.08ZM483.9,198.78l-7.61-.2c.75-.14,11.26-.07,12.19-.04,1.63.06.69.32-4.58.24ZM436.44,198.37c-3.08.11-7.17.43-12.3.32-.71-.02,7.37-.42,12.3-.32ZM237.36,198.52l12.21-.28c-.56.28-3.02.58-12.21.28ZM197.59,197.74c-1.56.02-5.72-.07-9.28-.04-2.33.02-4.88.14-7.99.19-3.93.05-11.65.07-12.89.11-1.79.05,1.94.42-10.74.14-2.27-.05-1.75-.14-3.29-.21-.83-.04-4.89-.05-4.83-.07.57-.29,17.39-.17,15.36-.44l-21.46.32c8.73-.17-14.55-.5-4.48-.56,9.33-.05-4.18.23,7.58.16,3.28-.23-4.25-.33-6.03-.44-1.01-.06,4.17-.02,5.15-.06,1.83-.08.74-.21,1.04-.21,5.33-.16,7.76.22,9.48.27,3.93.12,10.52.19,13.38.37,2.43-.09-1.19-.41,1.92-.47,2.65-.05,13.95.1,12-.16l9.06.72c10.94-.1,2.67-.36,3.13-.56l13.75.32c5.72.08,4.89-.34,10.7-.16,5.28.17-6.8.24-6.28.35.91.2,7.64.5,15.36.33,2.05-.39-2.09-.53,15.4-.51,2.93.08-10.74.43-4.69.56l7.73-.12-6.11-.12c9.97.06,4.18-.25,6.59-.31,1.73-.05,11.93.1,8.82-.25l6.03.24,3.16-.56c-2.91.22,6.39.23,6.46.36.07.12-4.16.43-3.49.44,5.64.15,6.09-.16,8.08-.16,11.04-.02,12.52.22,16.55-.39,15.33.16-.87.61-.11.64.21,0,4.59-.04,6.68.12,2.38.18-1.57.42-.74.61l-9.09-.24-3.11.32-4.56-.72-4.66.56-9.1-.24-4.7.32c-2.05-.2-1.54-.23-9.14-.32l-7.66.24v-.32s-15.3.32-15.3.32v-.4c-4.97,0-5.71.23-6.19.24-1.16.02-19.29-.49-15.25.16l6.09-.16c3.45.4-7.85.16-11.93.25-2.35.05-.12.46-6.5.47-3.06-.18,7.75-1.16,6.28-1.2-8.47-.27-5.48.31-6.18.32ZM693.8,198.35h3s3.04.32,3.04.32h-6.11s.07-.32.07-.32ZM663.12,198.58c-.3-.22,6.07-.32,9.17-.08l-9.17.08ZM479.23,198.12c-2.32-.12-9.59,0-2.87-.3-2.27-.05-15.16.12-12.21-.16,11.42-.09,30.96.6,29.64-.02-1.15-.54-13.27.21-20.4-.18-3.39-.19,8.09-.09,9.19-.12,6.78-.15-7.87-.14-6.08-.24,13.46.06,10.18-.13,6.18-.4,10.24-.07,4.4.2,6.14.24,2.73.07,28.6-.19,30.6-.15-10.52.4-1.38.58,9.13.16l3.09.32c15.73-.02,10.85-.28,12.28-.32,6.88-.21,3.46.29,9.1.24,3.87-.12-.48-.39.11-.4.59-.01,11.95.06,15.3,0,.75.02-15.09.44-.08.4l6.18-.4c1.82.16-4.01.57,2.95.64-.36-.2,3.6-.32,9.29-.44-8.14-.05-8.1-.25-4.53-.44l7.63.48c5.32-.06,7.91-.37,15.28-.11-2.4.19-9.48.14-6.19.44l-9.13-.08-.06.4c5.75.03,1.42-.15,3.64-.22,1.27-.04,7.28-.02,10.32-.09,3.91-.09,4.81-.27,12.17-.32l-.1.4c4.19-.25,20.63-.52,30.43-.48,3.5.01-.33.2,4.82.17l6.17-.24c7.35.4-3.85.62-18.41.56l-.16.64c-5.28.01-1.74-.46-9.11-.24-1.41.04,2.92.27-3.08.24,1.47-.51-14.51-.3-15.28-.33-.92-.03,3.32-.37.02-.48l-12.26.24c4.65.16,6.06.2,2.96.4l-4.56-.16-10.69.16c-2.46-.09,5.11-.64-6.01-.72l-.15.56c-11.18-.19-7.86.03-11.48.07-3.06.03-18.83.16-20.65.16-4.08,0,1.73-.27-4.57-.24l-.17.64h-9.13c-2.58-.11,7.38-.37,6.16-.4-6.34-.17-4.95.2-9.18.16l1.58-.48c-2.07.3-6.71.04-10.73.08-.43,0,3.82.2-1.59.24-2.79.02-.42-.12-2.89-.14-.78,0-16.35-.04-16.97-.02-.98.02.63.38-.12.48l-4.49-.24-13.84.2c15.16.13,1.91.28-2.52.1-1.53-.06.34-.19-.68-.24ZM350.66,198.26c6.55-.25-18.3-.37-24.35-.57l-9.26.4,3.15-.56,9.13.08c3.55-.52-14.46-.06-15.25-.08,1.28-.33,2.38-.7,10.87-.96,2.79.23.49.46,13.7.4-4.99-.13-11.39-.4-6.01-.56,5.17-.16,15.08.47,4.49.26-8.43.19,26.98.29,29.12.23.29,0-7.69-.39,1.65-.16,6.62.2,6.19.49,4.39.73l15.33-.24c-2.39.51-9.51.15-13.85.32-2.74.11-.31.2,3.09.24,5.47.06,4.4-.12,5.26-.13,1.92-.02,5.07.04,7.01-.02,1.41-.05-.93-.34,6.15-.4l10.65.24-5.99-.48,18.24.29c-2.38.15-8.89.03-9.11.04-2.09.1,2.83.36,2.95.48-6.66.08-12.12-.34-13.71-.32-9.37.07,1.5.32,1.39.36-.6.25-11.4-.06-12.14-.04l-3.19.32-2.99-.24c-14.39-.18-4.9.55-18.42.32-.78-.01,8.99-.39-2.96-.48,2.45.13-.85.65-3.35.72-.5.01-10.87-.09-15.18,0,4.04-.19,1.3-.3,9.19-.16ZM410.45,197.96c11.57.1,14.49.44-1.59.4l1.59-.4ZM617.23,197.85l-6.17.48c2.34-.16-2.05-.42,6.17-.48ZM301.96,197.9c2.01-.15,5.44.12,3.58-.42-.23-.06,2.65-.17,1.97-.19-1.23-.04-7.09.05-5.64-.09,9.52.06,2.76-.23,9.17-.24-1.48.45.46.86,2.88,1.29-1.21.03-10.61-.06-11.63-.1-.31-.01-.49-.24-.34-.26ZM441.16,197.32c8.49-.09-2.89-.38,4.67-.4l6.08.28-6.07.04c-2.25.11,8.08.45-1.7.56-9.1.1-.34-.42-7.51-.4l5.96.64c-11.59-.08-19.28-.7-12.05-.89,6.21-.16,4.64.22,10.62.16ZM747.63,197.65c1.3-.05-6.1-.61,2.98-.49,3.7.05,15.55.43,9.17.57l-6.14-.08c-3.6.18-21.61.32-13.79.08.61-.02,6.31-.01,7.79-.07ZM669.36,197.54l-3.04.16c-1.41-.24.83-.38,6.22-.56h-9.23s6.21-.24,6.21-.24l-9.19-.04c12.62-.34,11.69.08,21.37.21l3.1-.24,4.56.4c10.78-.21-1.5-.14-1.28-.19.14-.03,3.06-.23,4.4-.29,8.57.25,2.58.38,19.88.41l3,.16,1.62-.56c11.22.18,2.71.44,4.51.72,12.93.09.77-.45,9.22-.48-.78.27,3.2.01,7.03.18,3.56.15,6.44.28,5.13.47l-9.08-.32c2.81.23-6.79.32-14.07.35-7.04.03-6.58-.17-9.01.2-5.4-.28-12.89-.13-19.83-.29l6.11-.2c-14.21-.11-16.97.14-27.63.15ZM769.23,197.48c-1.24-.17-4.79-.31-4.75-.48,1.2-.04,6.66.17,9.33.2,10.22.13,22.38-.1,18.09.37-3.26-.03-11.11-.09-13.97-.06-3.95.05-4.61.34-10.53.21-.41,0,2.57-.14,1.83-.24ZM458.04,197.25c9.48.77-13.1.28-2.99,0,.4-.01,2,0,2.99,0ZM896.16,197.2l7.62.16,4.58-.16c1.06.35,1.29.35-12.28.32l.09-.32ZM816.44,197.34c2.88-.12-1.07-.2-6.07-.16l.03-.08c14.75.02-3.42-.12,1.55-.32,7.88.2,26.84.26,7.61.41l6.08.24h-15.3c-2.26-.29,5.66-.06,6.1-.08ZM851.73,197.42c-9.44-.09,1.62-.32,4.57-.24,1.04.03,1.88.3-4.57.24ZM914.6,196.8c8.61.04,10.82.19,13.76-.08l4.56.24c-3.28.01-9.9-.03-12.02,0-4.16.07,4.17.4-6.39.31l.08-.48ZM415.18,197.07c-9.94-.13.42-.57-2.87-.8l2.87.8ZM448.95,196.92h18.34s0,.08,0,.08h-18.35s.01-.08.01-.08ZM900.8,196.79c-3.55.02,1.1.19-4.59.16-4.67-.54,19.1-.4,15.24.08-.57.02-6.53-.09-8-.12-1.75-.03-.04-.14-2.65-.13ZM856.37,196.62c-.02.17,4.82.3-1.58.4l-1.42-.4h3ZM833.38,197.02c-5.98-.11-5.85-.49,1.58-.56l-1.58.56ZM844.12,196.54c-1.81.15,10.4.16,6.1.32-.26,0-8.9,0-9.13,0-.31-.01-2.05-.36,3.04-.32ZM782.89,196.44l-.07.4h-3s.07-.4.07-.4h3ZM707.82,196.83c-7.39-.09-2.92-.27,4.62-.24-1.84.05-3.08.26-4.62.24ZM228.39,196.71c-3.93.1-15.89-.23-3.03-.32-.79.08,5.05.27,3.03.32ZM764.47,196.64c-1.98.13-10.34.1-12.21.04-5.81-.18,14.77-.21,12.21-.04ZM320.33,196.57l-12.23.08,3.15-.48,9.08.4ZM228.49,196.38v-.08c15.49-.11,9.58.39,2.99.24-.54-.01,7.14-.21-2.99-.16ZM201.82,196.28c1.81-.1,4.61-.45,5.34-.46,3.88-.08,15.26.25,5.48.47-.65.01-4.67-.05-5.72-.03-2.21.05-3.56.46-12.17.28-4.99-.11,5.63-.18,7.07-.26ZM161.06,196.29c5.31.14-10.64.28-12.26.24-5.31-.14,10.64-.28,12.26-.24ZM485.73,196.53c-6.91-.05-6.49-.25-6-.4,1.79-.1,7.58.29,6,.4ZM366.33,196.26c.6.01-4.12.35-9.23.24-.6-.01,4.12-.35,9.23-.24ZM496.53,196.21c8.48,0-.01.36-4.62.24-1.75-.05,2.59-.24,4.62-.24ZM188.67,196.05l-.07.32c-1.69.1-7.71-.28-6.03-.32h6.1ZM285.17,196.08c3.23.07,5.57.12,4.55.24h-6.09s1.54-.24,1.54-.24ZM240.76,195.99v.08c-3.61-.02-14.01.11-15.31.08-5.53-.15,8.05-.27,15.31-.16ZM179.55,195.57l-.07.4h-2.99c-1.95-.15-1.93-.25.07-.4h2.99ZM482.82,195.97l.05-.32c17.41.13,17.39.2-.05.32ZM660.62,195.21h2.98c-2.01.14,6.71.17,6.14.2-2.81.08-4.67.15-9.18.12l.07-.32ZM565.67,195.02l7.67-.08c11.5.26.51.3-.54.35-2.05.1,1.01.24-4.14.21-1.74-.1,3.26-.38,2.76-.39-1.16-.04-7.05.05-5.75-.09ZM550.31,195.14c.29.02-12.83.13-9.28.36-2.38-.06-8.79-.08-9.11-.09-4.9-.14,14.19-.6,18.4-.27ZM703.52,194.82c.97.12-1.38.17-4.63.24l-1.46-.24h6.09ZM764.73,194.87c-.02.12-10.46.09-12.18.04-6.7-.21,12.21-.2,12.18-.04Z"/>
          <path d="M189.38,195.16c-1-.04-2.79-.33,2.54-.31-5.4.15,10.17.29,6.06.4-.32,0-8.35-.09-8.6-.1Z"/>
          <polygon points="559.09 197.67 562.25 197.27 565.25 197.27 568.27 197.67 559.09 197.67"/>
          <path d="M553.01,197.27c1.11.03-2.3.29-4.62.32-10.44-.15,1.1-.41,4.62-.32Z"/>
          <path d="M500.99,197.02c-2.26.08-7.13.38-9.2.32-4.02-.26-2.05-.34,9.2-.32Z"/>
          <path d="M500.97,197.34c5.88.04,6.87.18,6.01.32-1.49.08-7.28-.22-6.01-.32Z"/>
          <path d="M344.71,197.46c-.12-.18-1.62-.42,6.16-.48l-.06.48h-6.09Z"/>
          <path d="M347.69,197.94c-2.94-.09,3.97-.38,9.21-.4,3.11.15-4.64.53-9.21.4Z"/>
        </g>
      </g>
    </g>
  </g>
</svg>